<?xml version="1.0" standalone="no"?>
<!DOCTYPE svg PUBLIC "-//W3C//DTD SVG 20010904//EN"
 "http://www.w3.org/TR/2001/REC-SVG-20010904/DTD/svg10.dtd">
<svg version="1.0" xmlns="http://www.w3.org/2000/svg"
 width="250.000000pt" height="250.000000pt" viewBox="0 0 250.000000 250.000000"
 preserveAspectRatio="xMidYMid meet">

<g transform="translate(0.000000,250.000000) scale(0.100000,-0.100000)"
fill="#000000" stroke="none">
<path d="M0 1250 l0 -1250 1250 0 1250 0 0 1250 0 1250 -1250 0 -1250 0 0
-1250z m334 1100 c2 -3 18 -106 35 -230 17 -124 37 -270 46 -325 8 -55 17
-124 21 -152 3 -29 11 -53 17 -53 6 0 7 3 4 7 -4 3 2 20 12 37 20 33 26 68 97
516 15 95 32 172 41 181 17 20 124 33 168 21 25 -7 31 -15 36 -48 22 -120 39
-229 49 -304 6 -47 17 -121 25 -165 7 -44 19 -115 25 -157 7 -43 16 -78 19
-78 15 0 34 49 42 109 47 368 83 600 95 618 8 13 29 25 49 29 40 7 161 1 171
-8 6 -6 -12 -135 -36 -263 -6 -27 -37 -214 -70 -415 -33 -201 -62 -376 -65
-390 -10 -57 -27 -161 -40 -250 -9 -52 -20 -99 -26 -105 -11 -11 -203 -14
-213 -4 -4 4 -8 15 -10 25 -14 70 -28 156 -46 269 -11 72 -24 153 -30 180 -5
28 -12 71 -14 96 -3 25 -14 74 -25 107 -12 34 -21 69 -21 78 0 58 -20 -39 -75
-372 -42 -254 -67 -379 -76 -385 -22 -14 -183 -11 -201 3 -9 7 -21 42 -27 78
-9 53 -29 176 -55 340 -14 82 -48 287 -61 360 -44 250 -95 575 -95 606 0 27 5
37 23 44 22 9 201 9 211 0z m1620 -1005 c219 -67 392 -245 452 -466 24 -87 24
-253 0 -338 -64 -232 -247 -416 -476 -478 -46 -13 -101 -18 -185 -18 -105 1
-130 4 -200 29 -156 54 -267 140 -356 275 -195 294 -117 688 178 898 119 85
235 121 392 122 96 1 129 -3 195 -24z"/>
<path d="M720 1940 c0 -5 7 -7 15 -4 8 4 15 8 15 10 0 2 -7 4 -15 4 -8 0 -15
-4 -15 -10z"/>
<path d="M640 1930 c0 -5 5 -10 10 -10 6 0 10 5 10 10 0 6 -4 10 -10 10 -5 0
-10 -4 -10 -10z"/>
<path d="M1030 1796 c0 -2 8 -10 18 -17 15 -13 16 -12 3 4 -13 16 -21 21 -21
13z"/>
<path d="M327 1551 c-17 -6 -16 -8 8 -19 15 -7 30 -10 33 -7 3 3 0 5 -6 5 -6
0 -9 7 -6 15 7 16 -1 18 -29 6z"/>
<path d="M338 1503 c6 -2 10 -9 6 -14 -3 -5 5 -9 17 -9 22 0 22 0 3 15 -10 8
-23 14 -29 14 -5 0 -4 -3 3 -6z"/>
<path d="M490 1390 c0 -5 5 -10 11 -10 5 0 7 5 4 10 -3 6 -8 10 -11 10 -2 0
-4 -4 -4 -10z"/>
<path d="M335 1380 c-3 -5 -2 -10 4 -10 5 0 13 5 16 10 3 6 2 10 -4 10 -5 0
-13 -4 -16 -10z"/>
<path d="M358 1343 c7 -3 16 -2 19 1 4 3 -2 6 -13 5 -11 0 -14 -3 -6 -6z"/>
<path d="M320 1335 c0 -5 5 -17 10 -25 5 -8 10 -10 10 -5 0 6 -5 17 -10 25 -5
8 -10 11 -10 5z"/>
<path d="M376 1194 c-4 -9 -4 -19 -1 -22 2 -3 7 3 11 12 4 9 4 19 1 22 -2 3
-7 -3 -11 -12z"/>
<path d="M1509 1306 c-209 -87 -360 -286 -388 -513 -42 -335 189 -650 523
-713 84 -16 230 -9 271 13 57 29 114 88 142 145 24 49 28 69 27 142 0 100 -21
155 -84 224 -59 64 -130 95 -241 107 -182 18 -290 111 -320 275 -18 97 24 211
111 302 46 48 39 51 -41 18z m327 -840 c57 -57 41 -136 -34 -170 -34 -16 -46
-16 -77 -6 -40 13 -75 59 -75 98 0 35 27 80 58 96 47 26 90 20 128 -18z"/>
<path d="M1714 1140 c-84 -34 -84 -164 1 -204 75 -36 155 14 155 97 -1 82 -81
137 -156 107z"/>
</g>
</svg>
